<?xml version="1.0" encoding="UTF-8" standalone="no"?>
<svg
   fill="none"
   width="512"
   height="512"
   version="1.1"
   id="svg5"
   sodipodi:docname="The Octadecayotton Axes 13.svg"
   inkscape:version="1.3.2 (091e20ef0f, 2023-11-25)"
   xmlns:inkscape="http://www.inkscape.org/namespaces/inkscape"
   xmlns:sodipodi="http://sodipodi.sourceforge.net/DTD/sodipodi-0.dtd"
   xmlns="http://www.w3.org/2000/svg"
   xmlns:svg="http://www.w3.org/2000/svg">
  <defs
     id="defs5" />
  <sodipodi:namedview
     id="namedview5"
     pagecolor="#ffffff"
     bordercolor="#000000"
     borderopacity="0.25"
     inkscape:showpageshadow="2"
     inkscape:pageopacity="0.0"
     inkscape:pagecheckerboard="0"
     inkscape:deskcolor="#d1d1d1"
     inkscape:zoom="1.1449053"
     inkscape:cx="227.96645"
     inkscape:cy="236.26408"
     inkscape:window-width="1920"
     inkscape:window-height="1044"
     inkscape:window-x="1920"
     inkscape:window-y="0"
     inkscape:window-maximized="1"
     inkscape:current-layer="svg5" />
  <path
     d="M18 18h476v476H18z"
     stroke="#000"
     stroke-width="4"
     id="path2" />
  <g
     id="text5"
     style="font-size:48px;font-family:'Proxima Nova';-inkscape-font-specification:'Proxima Nova';fill:#000000"
     aria-label="diagram is not useful&#10;&#10;you're on your own :)">
    <path
       style="text-align:center;text-anchor:middle"
       d="m 62.751785,207.472 v -32.016 h -3.6 v 12.336 c -1.872,-2.544 -4.704,-4.08 -7.824,-4.08 -6.048,0 -10.32,4.752 -10.32,12.192 0,7.536 4.272,12.144 10.32,12.144 3.264,0 6.096,-1.68 7.824,-4.032 v 3.456 z m -10.512,-2.64 c -4.704,0 -7.488,-3.792 -7.488,-8.928 0,-5.136 2.784,-8.976 7.488,-8.976 2.832,0 5.664,1.728 6.912,3.744 v 10.464 c -1.248,2.016 -4.08,3.696 -6.912,3.696 z m 19.536037,-23.856 c 1.344,0 2.4,-1.056 2.4,-2.4 0,-1.344 -1.056,-2.448 -2.4,-2.448 -1.344,0 -2.448,1.104 -2.448,2.448 0,1.344 1.104,2.4 2.448,2.4 z m 1.776,26.496 v -23.184 h -3.6 v 23.184 z m 25.296018,0 v -15.936 c 0,-5.616 -4.032,-7.824 -8.976,-7.824 -3.792,0 -6.768,1.248 -9.264,3.84 l 1.68,2.496 c 2.064,-2.256 4.32,-3.216 7.104,-3.216 3.36,0 5.856,1.776 5.856,4.848 v 4.176 c -1.872,-2.112 -4.512,-3.12 -7.68,-3.12 -3.936,0 -8.064,2.4 -8.064,7.632 0,5.04 4.176,7.68 8.064,7.68 3.12,0 5.808,-1.104 7.68,-3.216 v 2.64 z m -9.936,-2.016 c -3.408,0 -5.76,-2.112 -5.76,-5.088 0,-2.928 2.352,-5.04 5.76,-5.04 2.496,0 4.944,0.96 6.336,2.832 v 4.416 c -1.392,1.92 -3.84,2.88 -6.336,2.88 z m 26.49599,11.424 c 5.664,0 11.088,-2.4 11.088,-9.744 v -22.848 h -3.6 v 3.504 c -1.872,-2.544 -4.704,-4.08 -7.824,-4.08 -6.096,0 -10.32,4.608 -10.32,12.048 0,7.488 4.272,12 10.32,12 3.264,0 6.096,-1.776 7.824,-4.128 v 3.504 c 0,4.896 -3.648,6.768 -7.488,6.768 -3.312,0 -5.616,-0.864 -7.536,-3.12 l -1.824,2.592 c 2.784,2.736 5.472,3.504 9.36,3.504 z m 0.576,-12.336 c -4.704,0 -7.488,-3.696 -7.488,-8.784 0,-5.136 2.784,-8.832 7.488,-8.832 2.832,0 5.616,1.728 6.912,3.696 V 200.8 c -1.296,2.016 -4.08,3.744 -6.912,3.744 z m 21.31204,2.928 v -16.416 c 1.056,-1.872 4.08,-3.696 6.336,-3.696 0.528,0 0.96,0.048 1.392,0.096 v -3.696 c -3.168,0 -5.856,1.824 -7.728,4.224 v -3.696 h -3.6 v 23.184 z m 30.336,0 v -15.936 c 0,-5.616 -4.032,-7.824 -8.976,-7.824 -3.792,0 -6.768,1.248 -9.264,3.84 l 1.68,2.496 c 2.064,-2.256 4.32,-3.216 7.104,-3.216 3.36,0 5.856,1.776 5.856,4.848 v 4.176 c -1.872,-2.112 -4.512,-3.12 -7.68,-3.12 -3.936,0 -8.064,2.4 -8.064,7.632 0,5.04 4.176,7.68 8.064,7.68 3.12,0 5.808,-1.104 7.68,-3.216 v 2.64 z m -9.936,-2.016 c -3.408,0 -5.76,-2.112 -5.76,-5.088 0,-2.928 2.352,-5.04 5.76,-5.04 2.496,0 4.944,0.96 6.336,2.832 v 4.416 c -1.392,1.92 -3.84,2.88 -6.336,2.88 z m 48.76799,2.016 V 190.72 c 0,-4.656 -2.256,-7.008 -6.48,-7.008 -3.36,0 -6.48,2.208 -7.776,4.32 -0.672,-2.4 -2.688,-4.32 -6.192,-4.32 -3.456,0 -6.528,2.448 -7.536,3.936 v -3.36 h -3.6 v 23.184 h 3.6 v -16.944 c 1.248,-1.872 3.744,-3.6 6.096,-3.6 3.072,0 4.272,1.872 4.272,4.8 v 15.744 h 3.6 V 190.48 c 1.2,-1.872 3.744,-3.552 6.144,-3.552 3.024,0 4.272,1.872 4.272,4.8 v 15.744 z m 21.45607,-26.496 c 1.344,0 2.4,-1.056 2.4,-2.4 0,-1.344 -1.056,-2.448 -2.4,-2.448 -1.344,0 -2.448,1.104 -2.448,2.448 0,1.344 1.104,2.4 2.448,2.4 z m 1.776,26.496 v -23.184 h -3.6 v 23.184 z m 14.59201,0.576 c 5.952,0 9.072,-3.12 9.072,-7.008 0,-9.024 -14.352,-5.712 -14.352,-10.752 0,-2.064 1.968,-3.648 5.136,-3.648 3.024,0 5.52,1.248 6.912,2.928 l 1.68,-2.496 c -1.824,-1.872 -4.608,-3.36 -8.592,-3.36 -5.52,0 -8.592,3.024 -8.592,6.672 0,8.592 14.352,5.136 14.352,10.752 0,2.304 -1.968,3.984 -5.52,3.984 -3.168,0 -6.096,-1.536 -7.632,-3.312 l -1.824,2.592 c 2.352,2.448 5.52,3.648 9.36,3.648 z m 46.60805,-0.576 V 191.2 c 0,-5.04 -2.544,-7.488 -7.344,-7.488 -3.504,0 -6.672,1.968 -8.304,3.936 v -3.36 h -3.6 v 23.184 h 3.6 v -16.944 c 1.392,-1.872 4.032,-3.6 6.864,-3.6 3.12,0 5.232,1.248 5.232,5.376 v 15.168 z m 17.376,0.576 c 7.056,0 11.472,-5.472 11.472,-12.192 0,-6.72 -4.416,-12.144 -11.472,-12.144 -7.056,0 -11.472,5.424 -11.472,12.144 0,6.72 4.416,12.192 11.472,12.192 z m 0,-3.216 c -4.944,0 -7.68,-4.224 -7.68,-8.976 0,-4.704 2.736,-8.928 7.68,-8.928 4.944,0 7.68,4.224 7.68,8.928 0,4.752 -2.736,8.976 -7.68,8.976 z m 23.23203,3.216 c 2.064,0 3.36,-0.624 4.272,-1.488 l -1.056,-2.736 c -0.48,0.528 -1.392,1.008 -2.448,1.008 -1.536,0 -2.304,-1.248 -2.304,-2.976 v -14.4 h 4.704 v -3.168 h -4.704 v -6.336 h -3.648 v 6.336 h -3.84 v 3.168 h 3.84 v 15.168 c 0,3.456 1.728,5.424 5.184,5.424 z m 39.88806,-0.576 v -23.184 h -3.6 v 17.04 c -1.344,1.872 -4.032,3.504 -6.816,3.504 -3.168,0 -5.232,-1.2 -5.232,-5.28 v -15.264 h -3.6 v 16.368 c 0,4.992 2.544,7.392 7.392,7.392 3.456,0 6.48,-1.824 8.256,-3.84 v 3.264 z m 14.59203,0.576 c 5.952,0 9.072,-3.12 9.072,-7.008 0,-9.024 -14.352,-5.712 -14.352,-10.752 0,-2.064 1.968,-3.648 5.136,-3.648 3.024,0 5.52,1.248 6.912,2.928 l 1.68,-2.496 c -1.824,-1.872 -4.608,-3.36 -8.592,-3.36 -5.52,0 -8.592,3.024 -8.592,6.672 0,8.592 14.352,5.136 14.352,10.752 0,2.304 -1.968,3.984 -5.52,3.984 -3.168,0 -6.096,-1.536 -7.632,-3.312 l -1.824,2.592 c 2.352,2.448 5.52,3.648 9.36,3.648 z m 25.44001,0 c 3.744,0 6.864,-1.296 9.216,-3.6 l -1.728,-2.352 c -1.872,1.92 -4.512,2.976 -7.2,2.976 -4.992,0 -8.016,-3.648 -8.304,-8.016 h 18.72 v -0.912 c 0,-6.96 -4.128,-12.432 -11.136,-12.432 -6.624,0 -11.424,5.424 -11.424,12.144 0,7.248 4.944,12.192 11.856,12.192 z m 7.152,-13.68 h -15.216 c 0.192,-3.504 2.64,-7.68 7.584,-7.68 5.28,0 7.584,4.272 7.632,7.68 z m 13.96799,13.104 v -20.016 h 4.704 v -3.168 h -4.704 v -1.776 c 0,-2.976 1.296,-4.56 3.696,-4.56 1.152,0 2.064,0.432 2.832,1.104 l 1.488,-2.304 c -1.44,-1.344 -3.024,-1.776 -4.896,-1.776 -4.08,0 -6.72,2.784 -6.72,7.536 v 1.776 h -3.84 v 3.168 h 3.84 v 20.016 z m 28.27201,0 v -23.184 h -3.6 v 17.04 c -1.344,1.872 -4.032,3.504 -6.816,3.504 -3.168,0 -5.232,-1.2 -5.232,-5.28 v -15.264 h -3.6 v 16.368 c 0,4.992 2.544,7.392 7.392,7.392 3.456,0 6.48,-1.824 8.256,-3.84 v 3.264 z m 10.80003,0 v -32.016 h -3.6 v 32.016 z"
       id="path10" />
    <path
       style="text-align:center;text-anchor:middle"
       d="m 39.999888,336.544 c 0.624,0.192 1.824,0.336 2.592,0.336 3.072,-0.048 5.424,-1.344 6.816,-4.704 l 11.616,-27.888 h -3.888 l -7.728,19.008 -7.68,-19.008 h -3.936 l 9.696,23.424 -1.536,3.504 c -0.816,1.92 -1.872,2.448 -3.456,2.448 -0.576,0 -1.44,-0.144 -1.968,-0.384 z m 34.895989,-8.496 c 7.056,0 11.472,-5.472 11.472,-12.192 0,-6.72 -4.416,-12.144 -11.472,-12.144 -7.056,0 -11.472,5.424 -11.472,12.144 0,6.72 4.416,12.192 11.472,12.192 z m 0,-3.216 c -4.944,0 -7.68,-4.224 -7.68,-8.976 0,-4.704 2.736,-8.928 7.68,-8.928 4.944,0 7.68,4.224 7.68,8.928 0,4.752 -2.736,8.976 -7.68,8.976 z m 36.576023,2.64 v -23.184 h -3.6 v 17.04 c -1.344,1.872 -4.032,3.504 -6.816,3.504 -3.167999,0 -5.231999,-1.2 -5.231999,-5.28 v -15.264 h -3.6 v 16.368 c 0,4.992 2.544,7.392 7.392,7.392 3.455999,0 6.479999,-1.824 8.255999,-3.84 v 3.264 z m 9.26403,-19.776 c 0,0 1.296,-9.84 1.296,-10.512 0,-1.2 -0.96,-2.208 -2.208,-2.208 -1.2,0 -2.16,1.008 -2.16,2.208 0,0.672 1.296,10.512 1.296,10.512 z m 11.08797,19.776 v -16.416 c 1.056,-1.872 4.08,-3.696 6.336,-3.696 0.528,0 0.96,0.048 1.392,0.096 v -3.696 c -3.168,0 -5.856,1.824 -7.728,4.224 v -3.696 h -3.6 v 23.184 z m 22.752,0.576 c 3.744,0 6.864,-1.296 9.216,-3.6 l -1.728,-2.352 c -1.872,1.92 -4.512,2.976 -7.2,2.976 -4.992,0 -8.016,-3.648 -8.304,-8.016 h 18.72 v -0.912 c 0,-6.96 -4.128,-12.432 -11.136,-12.432 -6.624,0 -11.424,5.424 -11.424,12.144 0,7.248 4.944,12.192 11.856,12.192 z m 7.152,-13.68 h -15.216 c 0.192,-3.504 2.64,-7.68 7.584,-7.68 5.28,0 7.584,4.272 7.632,7.68 z m 31.92002,13.68 c 7.056,0 11.472,-5.472 11.472,-12.192 0,-6.72 -4.416,-12.144 -11.472,-12.144 -7.056,0 -11.472,5.424 -11.472,12.144 0,6.72 4.416,12.192 11.472,12.192 z m 0,-3.216 c -4.944,0 -7.68,-4.224 -7.68,-8.976 0,-4.704 2.736,-8.928 7.68,-8.928 4.944,0 7.68,4.224 7.68,8.928 0,4.752 -2.736,8.976 -7.68,8.976 z m 36.57603,2.64 V 311.2 c 0,-5.04 -2.544,-7.488 -7.344,-7.488 -3.504,0 -6.672,1.968 -8.304,3.936 v -3.36 h -3.6 v 23.184 h 3.6 v -16.944 c 1.392,-1.872 4.032,-3.6 6.864,-3.6 3.12,0 5.232,1.248 5.232,5.376 v 15.168 z m 18.43204,9.072 c 0.624,0.192 1.824,0.336 2.592,0.336 3.072,-0.048 5.424,-1.344 6.816,-4.704 l 11.616,-27.888 h -3.888 l -7.728,19.008 -7.68,-19.008 h -3.936 l 9.696,23.424 -1.536,3.504 c -0.816,1.92 -1.872,2.448 -3.456,2.448 -0.576,0 -1.44,-0.144 -1.968,-0.384 z m 34.89598,-8.496 c 7.056,0 11.472,-5.472 11.472,-12.192 0,-6.72 -4.416,-12.144 -11.472,-12.144 -7.056,0 -11.472,5.424 -11.472,12.144 0,6.72 4.416,12.192 11.472,12.192 z m 0,-3.216 c -4.944,0 -7.68,-4.224 -7.68,-8.976 0,-4.704 2.736,-8.928 7.68,-8.928 4.944,0 7.68,4.224 7.68,8.928 0,4.752 -2.736,8.976 -7.68,8.976 z m 36.57603,2.64 v -23.184 h -3.6 v 17.04 c -1.344,1.872 -4.032,3.504 -6.816,3.504 -3.168,0 -5.232,-1.2 -5.232,-5.28 v -15.264 h -3.6 v 16.368 c 0,4.992 2.544,7.392 7.392,7.392 3.456,0 6.48,-1.824 8.256,-3.84 v 3.264 z m 10.80003,0 v -16.416 c 1.056,-1.872 4.08,-3.696 6.336,-3.696 0.528,0 0.96,0.048 1.392,0.096 v -3.696 c -3.168,0 -5.856,1.824 -7.728,4.224 v -3.696 h -3.6 v 23.184 z m 34.80003,0.576 c 7.056,0 11.472,-5.472 11.472,-12.192 0,-6.72 -4.416,-12.144 -11.472,-12.144 -7.056,0 -11.472,5.424 -11.472,12.144 0,6.72 4.416,12.192 11.472,12.192 z m 0,-3.216 c -4.944,0 -7.68,-4.224 -7.68,-8.976 0,-4.704 2.736,-8.928 7.68,-8.928 4.944,0 7.68,4.224 7.68,8.928 0,4.752 -2.736,8.976 -7.68,8.976 z m 41.04003,2.64 7.392,-23.184 h -3.792 l -5.664,18.48 -6.048,-18.48 h -3.12 l -6.096,18.48 -5.664,-18.48 h -3.744 l 7.392,23.184 h 3.6 l 6.048,-18.624 6.048,18.624 z m 30.76796,0 V 311.2 c 0,-5.04 -2.544,-7.488 -7.344,-7.488 -3.504,0 -6.672,1.968 -8.304,3.936 v -3.36 h -3.6 v 23.184 h 3.6 v -16.944 c 1.392,-1.872 4.032,-3.6 6.864,-3.6 3.12,0 5.232,1.248 5.232,5.376 v 15.168 z m 21.60004,-18.24 c 1.44,0 2.64,-1.248 2.64,-2.64 0,-1.44 -1.2,-2.64 -2.64,-2.64 -1.44,0 -2.64,1.2 -2.64,2.64 0,1.392 1.2,2.64 2.64,2.64 z m 0,18.72 c 1.44,0 2.64,-1.2 2.64,-2.64 0,-1.44 -1.2,-2.64 -2.64,-2.64 -1.44,0 -2.64,1.2 -2.64,2.64 0,1.44 1.2,2.64 2.64,2.64 z m 6.09602,7.392 c 3.12,-6.048 5.04,-11.568 5.04,-19.536 0,-8.016 -1.92,-13.488 -5.04,-19.584 l 2.208,-1.632 c 4.32,5.952 6.768,13.488 6.768,21.216 0,7.728 -2.448,15.264 -6.768,21.216 z"
       id="path11" />
  </g>
</svg>
